<?xml version="1.0" encoding="utf-8"?>
<!-- Generator: Adobe Illustrator 27.3.1, SVG Export Plug-In . SVG Version: 6.00 Build 0)  -->
<svg version="1.1" id="Layer_1" xmlns="http://www.w3.org/2000/svg" xmlns:xlink="http://www.w3.org/1999/xlink" x="0px" y="0px"
	 viewBox="0 0 106 46" style="enable-background:new 0 0 106 46;" xml:space="preserve">
<style type="text/css">
	.st0{display:none;}
	.st1{display:inline;}
	.st2{display:inline;fill:#58595B;}
</style>
<g class="st0">
	<path class="st1" d="M96.6,19l-15.2-0.6c-0.8,0-1.6-0.3-2.2-0.6l-9.7-6.6c-6-4-12.9-6.2-20.1-6.2h-14c-3.2,0-6.4,0.9-9.1,2.5
		l-14.2,8.3c-0.3,0.2-0.6,0.3-0.9,0.3l-3.9,0.1c-1.6-0.1-3.2,0.6-4.4,1.7C1.7,19,1,20.6,1,22.2v5.4c0,6.3,5.1,11.4,11.4,11.4h1.2
		c1.6,3.5,5,5.9,9.1,5.9c4.1,0,7.5-2.4,9.1-5.9h43.4c1.6,3.5,5,5.9,9.1,5.9s7.5-2.4,9.1-5.9h0.3c6.3,0,11.4-5.1,11.4-11.4
		C105,22.9,101.3,19.1,96.6,19z M13.2,37.9h-0.8c-4.1,0-7.6-2.4-9.2-5.9h10c-0.3,0.9-0.4,1.9-0.4,3C12.7,36,12.9,37,13.2,37.9z
		 M31,37.9c-0.1,0.4-0.3,0.8-0.5,1.2c-1.5,2.8-4.4,4.8-7.8,4.8s-6.3-2-7.8-4.8c-0.2-0.4-0.4-0.8-0.5-1.2C14.1,37,13.9,36,13.9,35
		c0-1,0.2-2,0.5-3c0.1-0.4,0.3-0.8,0.5-1.2c1.5-2.8,4.4-4.8,7.8-4.8s6.3,1.9,7.8,4.8c0.2,0.4,0.4,0.8,0.5,1.2c0.3,0.9,0.5,1.9,0.5,3
		C31.5,36,31.3,37,31,37.9z M74.7,37.9H32.2c0.3-0.9,0.4-1.9,0.4-2.9c0-1-0.2-2-0.4-3h42.5c-0.3,0.9-0.4,1.9-0.4,3
		C74.3,36,74.4,37,74.7,37.9z M92.5,37.9c-0.1,0.4-0.3,0.8-0.5,1.2c-1.5,2.8-4.4,4.8-7.8,4.8c-3.4,0-6.3-2-7.8-4.8
		c-0.2-0.4-0.4-0.8-0.5-1.2C75.6,37,75.4,36,75.4,35c0-1,0.2-2,0.5-3c0.1-0.4,0.3-0.8,0.5-1.2c1.5-2.8,4.4-4.8,7.8-4.8
		c3.4,0,6.3,1.9,7.8,4.8c0.2,0.4,0.4,0.8,0.5,1.2c0.3,0.9,0.5,1.9,0.5,3C93.1,36,92.9,37,92.5,37.9z M93.8,37.9
		c0.3-0.9,0.4-1.9,0.4-2.9c0-1-0.2-2-0.4-3h9.1C101.3,35.4,97.8,37.8,93.8,37.9z M93.3,30.9c-1.6-3.5-5-5.9-9.1-5.9
		c-4,0-7.5,2.4-9.1,5.9H31.8c-1.6-3.5-5-5.9-9.1-5.9c-4,0-7.5,2.4-9.1,5.9H2.7C2.4,30,2.2,29,2.2,28h2.9c0.3,0,0.6-0.3,0.6-0.6
		c0-0.3-0.3-0.6-0.6-0.6H2.1v-3.8h2.9c0.3,0,0.6-0.3,0.6-0.6c0-0.3-0.3-0.6-0.6-0.6H2.2c0.1-1.2,0.6-2.4,1.5-3.3
		c0.9-0.9,2.2-1.4,3.5-1.4l0.2,0l4-0.1c0.5,0,1-0.2,1.5-0.4l14.2-8.3c2.6-1.5,5.6-2.3,8.6-2.3h14c7,0,13.7,2.1,19.5,6l9.7,6.6
		c0.9,0.5,1.8,0.8,2.8,0.8l15.2,0.6h0c2.6,0.1,4.8,1.5,6.1,3.6h-5.8c-0.3,0-0.6,0.3-0.6,0.6c0,0.3,0.3,0.6,0.6,0.6h6.4
		c0.3,0.9,0.5,1.8,0.5,2.8c0,1.1-0.2,2.2-0.5,3.2H93.3z"/>
	<path class="st1" d="M50.2,8.6H37.4c-3.1,0-6.2,1.3-8.5,3.8c-1,1.1-1.3,2.6-0.7,4c0.6,1.4,1.8,2.3,3.3,2.3L73,20h0
		c0.3,0,0.6-0.2,0.7-0.5l0.1-0.5L70,15.9C64.5,11.2,57.5,8.6,50.2,8.6z M31.5,17.5c-1,0-1.9-0.6-2.3-1.6c-0.4-0.9-0.2-2,0.6-2.9
		c1.9-2.1,4.7-3.3,7.5-3.3h10.7l2.9,8.4L31.5,17.5z M52.2,18.2C52.2,18.2,52.2,18.1,52.2,18.2l-2.9-8.4h0.9c7,0,13.8,2.5,19.1,7
		l2.4,2.1L52.2,18.2z"/>
	<path class="st1" d="M88.3,30.9c-1-1-2.4-1.6-4-1.6s-3,0.6-4,1.6c-0.3,0.3-0.6,0.7-0.9,1.2c-0.5,0.9-0.8,1.9-0.8,3
		c0,1.1,0.3,2.1,0.8,2.9c0.2,0.4,0.5,0.8,0.9,1.2c1,1,2.5,1.7,4,1.7s3-0.6,4-1.7c0.3-0.3,0.6-0.7,0.9-1.2C89.7,37,90,36,90,35
		c0-1.1-0.3-2.1-0.8-3C88.9,31.6,88.6,31.2,88.3,30.9z M87.8,37.9c-0.4,0.5-0.9,0.9-1.4,1.2c-0.6,0.3-1.3,0.5-2.1,0.5
		c-0.8,0-1.4-0.2-2.1-0.5c-0.6-0.3-1-0.7-1.4-1.2c-0.7-0.8-1.1-1.8-1.1-2.9c0-1.1,0.4-2.2,1.1-3c0.4-0.5,0.9-0.9,1.5-1.2
		c0.6-0.3,1.3-0.5,2-0.5c0.7,0,1.4,0.2,2,0.5c0.6,0.3,1.1,0.7,1.5,1.2c0.7,0.8,1.1,1.8,1.1,3C88.8,36.1,88.4,37.1,87.8,37.9z"/>
	<path class="st1" d="M56.8,22.4h-3c-0.3,0-0.6,0.3-0.6,0.6c0,0.3,0.3,0.6,0.6,0.6h3c0.3,0,0.6-0.3,0.6-0.6
		C57.3,22.7,57.1,22.4,56.8,22.4z"/>
	<path class="st1" d="M34.6,22.4h-3c-0.3,0-0.6,0.3-0.6,0.6c0,0.3,0.3,0.6,0.6,0.6h3c0.3,0,0.6-0.3,0.6-0.6
		C35.2,22.7,34.9,22.4,34.6,22.4z"/>
	<path class="st1" d="M26.7,30.9c-1-1-2.4-1.6-4-1.6c-1.6,0-3,0.6-4,1.6c-0.3,0.3-0.6,0.7-0.9,1.2c-0.5,0.9-0.8,1.9-0.8,3
		c0,1.1,0.3,2.1,0.8,2.9c0.2,0.4,0.5,0.8,0.9,1.2c1,1,2.5,1.7,4,1.7c1.6,0,3-0.6,4-1.7c0.3-0.3,0.6-0.7,0.9-1.2
		c0.5-0.9,0.8-1.9,0.8-2.9c0-1.1-0.3-2.1-0.8-3C27.3,31.6,27,31.2,26.7,30.9z M26.2,37.9c-0.4,0.5-0.9,0.9-1.4,1.2
		c-0.6,0.3-1.3,0.5-2.1,0.5c-0.8,0-1.4-0.2-2.1-0.5c-0.6-0.3-1-0.7-1.4-1.2c-0.7-0.8-1.1-1.8-1.1-2.9c0-1.1,0.4-2.2,1.1-3
		c0.4-0.5,0.9-0.9,1.5-1.2c0.6-0.3,1.3-0.5,2-0.5c0.7,0,1.4,0.2,2,0.5c0.6,0.3,1.1,0.7,1.5,1.2c0.7,0.8,1.1,1.8,1.1,3
		C27.3,36.1,26.9,37.1,26.2,37.9z"/>
</g>
<g class="st0">
	<path class="st1" d="M96.7,18.9l-15.2-0.6c-0.8,0-1.6-0.3-2.2-0.6L67.9,9.9c-4.8-3.3-10.5-5-16.3-5H15c-2.6,0-5.2,1.3-6.7,3.4
		l-6.2,8.2C1.4,17.5,1,18.6,1,19.8l0,7.8C1,33.9,6.1,39,12.4,39h1.2c1.6,3.5,5,5.9,9.1,5.9c4,0,7.5-2.4,9.1-5.9h43.3
		c1.6,3.5,5,5.9,9.1,5.9c4,0,7.5-2.4,9.1-5.9h0.3c6.3,0,11.3-5.1,11.3-11.4C105,22.9,101.3,19,96.7,18.9z M13.2,37.8h-0.8
		c-4.1,0-7.6-2.4-9.2-5.9h10c-0.3,0.9-0.4,1.9-0.4,3C12.8,35.9,12.9,36.9,13.2,37.8z M31,37.8c-0.1,0.4-0.3,0.8-0.5,1.2
		c-1.5,2.8-4.4,4.8-7.8,4.8s-6.3-2-7.8-4.8c-0.2-0.4-0.4-0.8-0.5-1.2c-0.3-0.9-0.5-1.9-0.5-2.9c0-1,0.2-2,0.5-3
		c0.1-0.4,0.3-0.8,0.5-1.2c1.5-2.8,4.4-4.8,7.8-4.8s6.3,1.9,7.8,4.8c0.2,0.4,0.4,0.8,0.5,1.2c0.3,0.9,0.5,1.9,0.5,3
		C31.6,35.9,31.3,36.9,31,37.8z M74.7,37.8H32.3c0.3-0.9,0.4-1.9,0.4-2.9c0-1-0.2-2-0.4-3h42.5c-0.3,0.9-0.4,1.9-0.4,3
		C74.3,35.9,74.5,36.9,74.7,37.8z M92.6,37.8c-0.1,0.4-0.3,0.8-0.5,1.2c-1.5,2.8-4.4,4.8-7.8,4.8c-3.4,0-6.3-2-7.8-4.8
		c-0.2-0.4-0.4-0.8-0.5-1.2c-0.3-0.9-0.5-1.9-0.5-2.9c0-1,0.2-2,0.5-3c0.1-0.4,0.3-0.8,0.5-1.2C78,28,80.9,26,84.3,26
		s6.3,1.9,7.8,4.8c0.2,0.4,0.4,0.8,0.5,1.2c0.3,0.9,0.5,1.9,0.5,3C93.1,35.9,92.9,36.9,92.6,37.8z M93.8,37.8
		c0.3-0.9,0.4-1.9,0.4-2.9c0-1-0.2-2-0.4-3h9.1C101.3,35.4,97.8,37.8,93.8,37.8z M93.3,30.8c-1.6-3.5-5-5.9-9.1-5.9
		c-4,0-7.5,2.4-9.1,5.9H31.8c-1.6-3.5-5-5.9-9.1-5.9c-4,0-7.5,2.4-9.1,5.9H2.7c-0.3-0.9-0.5-1.8-0.5-2.8h2.9c0.3,0,0.6-0.3,0.6-0.6
		c0-0.3-0.3-0.6-0.6-0.6H2.2l0-3.8h2.9c0.3,0,0.6-0.3,0.6-0.6c0-0.3-0.3-0.6-0.6-0.6h-3l0-2.1c0-0.9,0.3-1.8,0.8-2.5L9.2,9
		c1.4-1.8,3.6-2.9,5.8-2.9h36.5c5.6,0,11,1.7,15.6,4.8l11.4,7.8c0.9,0.5,1.8,0.8,2.8,0.8L96.6,20h0c2.6,0.1,4.8,1.5,6.1,3.6h-5.8
		c-0.3,0-0.6,0.3-0.6,0.6c0,0.3,0.3,0.6,0.6,0.6h6.4c0.3,0.9,0.5,1.8,0.5,2.8c0,1.1-0.2,2.2-0.5,3.2H93.3z"/>
	<path class="st1" d="M50.2,8.5L15.6,8.3c-2-0.1-3.9,1-5,2.7l-3.1,4.7c-0.4,0.5-0.4,1.2-0.1,1.8c0.3,0.6,0.9,0.9,1.5,0.9l14.5,0.4
		c0,0,0,0,0,0l0.2,0c0,0,0.1,0,0.1,0L73,20h0c0.3,0,0.6-0.2,0.7-0.5l0.1-0.5l-3.7-3.2C64.5,11.1,57.5,8.5,50.2,8.5z M23.2,17.6
		L9,17.3c-0.3,0-0.5-0.2-0.5-0.3c0-0.1-0.1-0.3,0-0.6l3.1-4.7c0.9-1.4,2.4-2.2,4-2.2h0l10.7,0.1L23.2,17.6z M24.5,17.6l3.1-8.1
		l15.7,0.1l1.4,8.5L24.5,17.6z M45.8,18.2C45.8,18.2,45.8,18.1,45.8,18.2l-1.4-8.5l5.8,0c7,0,13.8,2.5,19.1,7l2.4,2.1L45.8,18.2z"/>
	<path class="st1" d="M88.3,30.8c-1-1-2.4-1.6-4-1.6c-1.6,0-3,0.6-4,1.6c-0.3,0.3-0.6,0.7-0.9,1.2c-0.5,0.9-0.8,1.9-0.8,3
		c0,1.1,0.3,2.1,0.8,2.9c0.2,0.4,0.5,0.8,0.9,1.2c1,1,2.5,1.7,4,1.7c1.6,0,3-0.6,4-1.7c0.3-0.3,0.6-0.7,0.9-1.2
		C89.7,37,90,36,90,34.9c0-1.1-0.3-2.1-0.8-3C88.9,31.5,88.6,31.1,88.3,30.8z M87.8,37.8c-0.4,0.5-0.9,0.9-1.4,1.2
		c-0.6,0.3-1.3,0.5-2.1,0.5c-0.8,0-1.4-0.2-2.1-0.5c-0.6-0.3-1-0.7-1.4-1.2c-0.7-0.8-1.1-1.8-1.1-2.9c0-1.1,0.4-2.2,1.1-3
		c0.4-0.5,0.9-0.9,1.5-1.2c0.6-0.3,1.3-0.5,2-0.5c0.7,0,1.4,0.2,2,0.5c0.6,0.3,1.1,0.7,1.5,1.2c0.7,0.8,1.1,1.8,1.1,3
		C88.8,36,88.4,37,87.8,37.8z"/>
	<path class="st1" d="M56.8,22.4h-3c-0.3,0-0.6,0.3-0.6,0.6c0,0.3,0.3,0.6,0.6,0.6h3c0.3,0,0.6-0.3,0.6-0.6
		C57.4,22.6,57.1,22.4,56.8,22.4z"/>
	<path class="st1" d="M34.7,22.4h-3c-0.3,0-0.6,0.3-0.6,0.6c0,0.3,0.3,0.6,0.6,0.6h3c0.3,0,0.6-0.3,0.6-0.6
		C35.2,22.6,35,22.4,34.7,22.4z"/>
	<path class="st1" d="M26.7,30.8c-1-1-2.4-1.6-4-1.6c-1.6,0-3,0.6-4,1.6c-0.3,0.3-0.6,0.7-0.9,1.2c-0.5,0.9-0.8,1.9-0.8,3
		c0,1.1,0.3,2.1,0.8,2.9c0.2,0.4,0.5,0.8,0.9,1.2c1,1,2.5,1.7,4,1.7c1.6,0,3-0.6,4-1.7c0.3-0.3,0.6-0.7,0.9-1.2
		c0.5-0.9,0.8-1.9,0.8-2.9c0-1.1-0.3-2.1-0.8-3C27.4,31.5,27.1,31.1,26.7,30.8z M26.2,37.8c-0.4,0.5-0.9,0.9-1.4,1.2
		c-0.6,0.3-1.3,0.5-2.1,0.5s-1.4-0.2-2.1-0.5c-0.6-0.3-1-0.7-1.4-1.2c-0.7-0.8-1.1-1.8-1.1-2.9c0-1.1,0.4-2.2,1.1-3
		c0.4-0.5,0.9-0.9,1.5-1.2c0.6-0.3,1.3-0.5,2-0.5s1.4,0.2,2,0.5c0.6,0.3,1.1,0.7,1.5,1.2c0.7,0.8,1.1,1.8,1.1,3
		C27.3,36,26.9,37,26.2,37.8z"/>
</g>
<g class="st0">
	<path class="st1" d="M102.3,25.4c-1.3-2.5-4.1-4.1-7.5-4.3l-24.5-2.1c-1.8-0.3-3.8-0.7-5.3-1.8l-7.4-5c-0.2-0.2-0.6-0.4-1-0.7
		C52.9,9,52.3,8.7,51.8,9c-0.3,0.2-0.4,0.5-0.6,0.9l-0.1,0.2c-0.4,0.6-0.3,1.4,0.3,1.9l7.4,6.1l0.1,0.3l-0.2,0.2l-18.9-0.8l-2-4.7
		c-0.3-0.7-1-1.1-1.7-1.1c-0.6,0-1.1,0.3-1.5,0.7c-0.4,0.5-0.5,1-0.4,1.6l0.8,3.4l-2.6-0.1L32,17.3v-2.7c0-1.3-0.6-2.5-1.7-3.2
		c-1.1-0.7-2.4-0.8-3.6-0.3c-3.3,1.4-7.8,3.4-11.2,4.9c-1.2,0.5-2.6,0.8-3.9,0.9l-2.5,0c-1.6-0.1-3.2,0.5-4.3,1.7
		C3.6,19.6,3,21.1,3,22.8V28c0,6.1,5,11.1,11.1,11.1h1.2c1.5,3.4,4.9,5.8,8.9,5.8c4,0,7.4-2.4,8.9-5.8h40.8c1.5,3.4,4.9,5.8,8.9,5.8
		c4,0,7.4-2.4,8.9-5.9c3.9-0.4,7.3-2.4,9.5-5.4c0.3-0.4,0.6-0.9,0.8-1.3h0.1v-0.2C103.2,29.8,103.3,27.4,102.3,25.4z M35.3,13.3
		c0.3-0.4,1.1-0.3,1.3,0.2l1.8,4.2L36,17.6l-0.9-3.7C35.1,13.7,35.1,13.5,35.3,13.3z M14.9,38h-0.8c-4,0-7.4-2.4-9-5.7h9.8
		c-0.3,0.9-0.4,1.9-0.4,2.9C14.5,36.2,14.6,37.1,14.9,38z M32.3,38c-0.1,0.4-0.3,0.8-0.5,1.1c-1.4,2.8-4.3,4.7-7.6,4.7
		c-3.3,0-6.2-1.9-7.6-4.7c-0.2-0.4-0.4-0.7-0.5-1.1c-0.3-0.9-0.5-1.8-0.5-2.9c0-1,0.2-2,0.5-2.9c0.1-0.4,0.3-0.8,0.5-1.1
		c1.4-2.7,4.3-4.6,7.6-4.6c3.3,0,6.1,1.9,7.6,4.6c0.2,0.4,0.4,0.7,0.5,1.1c0.3,0.9,0.5,1.9,0.5,2.9C32.8,36.2,32.6,37.1,32.3,38z
		 M73.4,38H33.5c0.3-0.9,0.4-1.9,0.4-2.9c0-1-0.2-2-0.4-2.9h39.9c-0.3,0.9-0.4,1.9-0.4,2.9C73,36.2,73.2,37.1,73.4,38z M90.8,38
		c-0.1,0.4-0.3,0.8-0.5,1.2c-1.4,2.8-4.3,4.7-7.6,4.7c-3.3,0-6.2-1.9-7.6-4.7c-0.2-0.4-0.4-0.7-0.5-1.1c-0.3-0.9-0.5-1.8-0.5-2.9
		c0-1,0.2-2,0.5-2.9c0.1-0.4,0.3-0.8,0.5-1.1c1.4-2.7,4.3-4.6,7.6-4.6c3.3,0,6.1,1.9,7.6,4.6c0.2,0.4,0.4,0.7,0.5,1.1
		c0.3,0.9,0.5,1.9,0.5,2.9C91.4,36.2,91.2,37.1,90.8,38z M100.2,33c-1.9,2.7-4.8,4.4-8.1,4.9c0.2-0.9,0.4-1.8,0.4-2.7
		c0-1-0.2-2-0.4-2.9h8.6C100.5,32.5,100.4,32.8,100.2,33z M101.3,31.2h-9.6c-1.5-3.4-4.9-5.8-8.9-5.8c-3.9,0-7.3,2.4-8.9,5.8H33.1
		c-1.5-3.4-4.9-5.8-8.9-5.8c-3.9,0-7.3,2.4-8.9,5.8H4.6c-0.3-0.9-0.5-1.8-0.5-2.8H7c0.3,0,0.6-0.3,0.6-0.6c0-0.3-0.3-0.6-0.6-0.6
		H4.1v-3.7H7c0.3,0,0.6-0.3,0.6-0.6c0-0.3-0.3-0.6-0.6-0.6H4.2c0.1-1.2,0.6-2.3,1.4-3.2c0.9-0.9,2.1-1.4,3.4-1.4l0.2,0l2.6,0
		c1.5,0,3-0.3,4.3-1c3.4-1.5,7.9-3.4,11.2-4.8c0.8-0.4,1.8-0.3,2.5,0.2c0.8,0.5,1.2,1.3,1.2,2.2v2.7c0,0.7,0.5,1.3,1.2,1.3l26.4,1.2
		c0.6,0.1,1.1-0.3,1.3-0.9c0.2-0.6,0-1.2-0.4-1.6l-7.4-6c-0.1-0.1-0.2-0.4-0.1-0.5l0.2-0.3l0.1-0.3c0.7,0.3,2.8,1.8,3.7,2.4
		c0.4,0.3,0.7,0.5,1,0.7l7.4,5c1.7,1.3,3.8,1.7,5.8,2l24.6,2.1l0,0c2.5,0.1,4.7,1.1,6,2.8h-5.6c-0.3,0-0.6,0.3-0.6,0.6
		c0,0.3,0.3,0.6,0.6,0.6h6.2C102.1,27.7,102,29.4,101.3,31.2z"/>
	<path class="st1" d="M86.6,31.2c-1-1-2.4-1.6-3.9-1.6c-1.5,0-2.9,0.6-3.9,1.6c-0.3,0.3-0.6,0.7-0.9,1.1c-0.5,0.8-0.8,1.8-0.8,2.9
		c0,1,0.3,2,0.8,2.9c0.2,0.4,0.5,0.8,0.8,1.1c1,1,2.4,1.6,3.9,1.6c1.5,0,2.9-0.6,3.9-1.6c0.3-0.3,0.6-0.7,0.8-1.1
		c0.5-0.8,0.8-1.8,0.8-2.9c0-1.1-0.3-2-0.8-2.9C87.3,31.9,87,31.5,86.6,31.2z M86.2,38c-0.4,0.5-0.9,0.8-1.4,1.1
		c-0.6,0.3-1.3,0.5-2,0.5c-0.7,0-1.4-0.2-2-0.5c-0.5-0.3-1-0.7-1.4-1.1c-0.6-0.8-1-1.8-1-2.9c0-1.1,0.4-2.1,1.1-2.9
		c0.4-0.5,0.9-0.8,1.4-1.1c0.6-0.3,1.3-0.5,2-0.5c0.7,0,1.4,0.2,2,0.5c0.6,0.3,1,0.7,1.4,1.1c0.7,0.8,1.1,1.8,1.1,2.9
		C87.2,36.3,86.8,37.2,86.2,38z"/>
	<path class="st1" d="M43,22.2h-2.9c-0.3,0-0.6,0.3-0.6,0.6s0.3,0.6,0.6,0.6H43c0.3,0,0.6-0.3,0.6-0.6S43.3,22.2,43,22.2z"/>
	<path class="st1" d="M28.1,31.2c-1-1-2.4-1.6-3.9-1.6c-1.5,0-2.9,0.6-3.9,1.6c-0.3,0.3-0.6,0.7-0.9,1.1c-0.5,0.8-0.8,1.8-0.8,2.9
		c0,1,0.3,2,0.8,2.9c0.2,0.4,0.5,0.8,0.8,1.1c1,1,2.4,1.6,3.9,1.6c1.5,0,2.9-0.6,3.9-1.6c0.3-0.3,0.6-0.7,0.8-1.1
		c0.5-0.8,0.8-1.8,0.8-2.9c0-1.1-0.3-2-0.8-2.9C28.7,31.9,28.4,31.5,28.1,31.2z M27.6,38c-0.4,0.5-0.9,0.8-1.4,1.1
		c-0.6,0.3-1.3,0.5-2,0.5c-0.7,0-1.4-0.2-2-0.5c-0.5-0.3-1-0.7-1.4-1.1c-0.6-0.8-1.1-1.8-1.1-2.9c0-1.1,0.4-2.1,1.1-2.9
		c0.4-0.5,0.9-0.8,1.4-1.1c0.6-0.3,1.3-0.5,2-0.5c0.7,0,1.4,0.2,2,0.5c0.6,0.3,1,0.7,1.4,1.1c0.7,0.8,1.1,1.8,1.1,2.9
		C28.7,36.3,28.3,37.2,27.6,38z"/>
	<path class="st1" d="M28.8,17.2l-8.9-0.3c-0.3,0-0.6,0.2-0.6,0.5c0,0.3,0.2,0.6,0.5,0.6l8.9,0.3h0c0.3,0,0.6-0.2,0.6-0.5
		C29.3,17.5,29.1,17.3,28.8,17.2z"/>
</g>
<g>
	<path d="M95,20.2l-21.4-2c-0.6-0.1-1.2-0.2-1.8-0.5l-15-7.1c-5-2.4-10.7-3.7-16.3-3.7c-10,0-19.5,3.6-26.8,10.2
		c-0.2,0.2-0.5,0.2-0.8,0.2l-3.8,0.1c-1.6-0.1-3.1,0.5-4.3,1.6C3.6,20.2,3,21.7,3,23.3v5.1c0,6,4.9,10.8,10.9,10.8h1.2
		c1.5,3.3,4.9,5.6,8.7,5.6c3.9,0,7.2-2.3,8.7-5.6h44.9c1.5,3.3,4.9,5.6,8.7,5.6c4.1,0,7.5-2.5,8.9-6.1c4.5-1.3,7.9-5.5,7.9-10.4
		C103,24,99.5,20.4,95,20.2z M14.7,38.2h-0.8c-3.9,0-7.3-2.3-8.9-5.6h9.7c-0.3,0.9-0.4,1.8-0.4,2.8C14.3,36.4,14.4,37.3,14.7,38.2z
		 M31.8,38.2c-0.1,0.4-0.3,0.7-0.5,1.1c-1.4,2.7-4.2,4.6-7.5,4.6s-6.1-1.9-7.5-4.6c-0.2-0.4-0.3-0.7-0.5-1.1
		c-0.3-0.9-0.5-1.8-0.5-2.8c0-1,0.2-1.9,0.5-2.8c0.1-0.4,0.3-0.7,0.5-1.1c1.4-2.7,4.2-4.5,7.5-4.5c3.2,0,6,1.8,7.5,4.5
		c0.2,0.4,0.4,0.7,0.5,1.1c0.3,0.9,0.5,1.8,0.5,2.8C32.3,36.4,32.1,37.3,31.8,38.2z M77,38.2H33c0.3-0.9,0.4-1.8,0.4-2.8
		c0-1-0.2-1.9-0.4-2.8h44c-0.3,0.9-0.4,1.8-0.4,2.8C76.6,36.4,76.8,37.3,77,38.2z M94.3,37.9c-0.1,0.4-0.3,0.8-0.5,1.2
		c-1.4,2.8-4.2,4.7-7.6,4.7c-3.3,0-6.1-1.9-7.5-4.6c-0.2-0.4-0.3-0.7-0.5-1.1c-0.3-0.9-0.5-1.8-0.5-2.8c0-1,0.2-1.9,0.5-2.8
		c0.1-0.4,0.3-0.7,0.5-1.1c1.4-2.7,4.2-4.5,7.5-4.5c3.2,0,6,1.8,7.5,4.5c0.2,0.4,0.4,0.7,0.5,1.1c0.3,0.9,0.5,1.8,0.5,2.8
		C94.7,36.3,94.5,37.1,94.3,37.9z M95.5,37.6c0.2-0.7,0.3-1.4,0.3-2.1c0-1-0.2-1.9-0.4-2.8h5.6C99.9,34.9,97.9,36.7,95.5,37.6z
		 M94.9,31.5c-1.5-3.3-4.8-5.6-8.7-5.6c-3.9,0-7.2,2.3-8.7,5.6H32.6c-1.5-3.3-4.8-5.6-8.7-5.6c-3.9,0-7.2,2.3-8.7,5.6H4.6
		c-0.3-0.9-0.4-1.8-0.5-2.7h2.8c0.3,0,0.6-0.2,0.6-0.5c0-0.3-0.2-0.5-0.6-0.5H4.1v-3.6h2.8c0.3,0,0.6-0.2,0.6-0.5
		c0-0.3-0.2-0.5-0.6-0.5H4.1c0.1-1.2,0.6-2.3,1.4-3.1c0.9-0.9,2.1-1.3,3.3-1.3l0.2,0l3.8-0.1c0.5,0,1-0.2,1.5-0.5
		c7.2-6.4,16.5-10,26.2-10c5.4,0,10.9,1.2,15.8,3.6l15,7.1c0.7,0.3,1.4,0.5,2.2,0.6l21.4,2l0,0c2.5,0.1,4.7,1.4,5.9,3.4h-5.6
		c-0.3,0-0.6,0.2-0.6,0.5c0,0.3,0.2,0.5,0.6,0.5h6.2c0.3,0.8,0.5,1.7,0.5,2.7c0,1.1-0.2,2.1-0.5,3.1H94.9z"/>
	<path d="M90.1,31.5c-1-1-2.3-1.6-3.8-1.6c-1.5,0-2.8,0.6-3.8,1.6c-0.3,0.3-0.6,0.7-0.9,1.1c-0.5,0.8-0.8,1.8-0.8,2.8
		c0,1,0.3,2,0.8,2.8c0.2,0.4,0.5,0.8,0.8,1.1c1,1,2.4,1.6,3.9,1.6c1.5,0,2.9-0.6,3.9-1.6c0.3-0.3,0.6-0.7,0.8-1.1
		c0.5-0.8,0.8-1.8,0.8-2.8c0-1-0.3-2-0.8-2.8C90.7,32.2,90.4,31.8,90.1,31.5z M89.6,38.2c-0.4,0.5-0.8,0.8-1.4,1.1
		c-0.6,0.3-1.3,0.5-2,0.5c-0.7,0-1.4-0.2-2-0.5c-0.5-0.3-1-0.6-1.4-1.1c-0.6-0.8-1-1.7-1-2.8c0-1.1,0.4-2.1,1.1-2.8
		c0.4-0.5,0.9-0.8,1.4-1.1c0.6-0.3,1.2-0.5,1.9-0.5c0.7,0,1.4,0.2,1.9,0.5c0.5,0.3,1,0.6,1.4,1.1c0.7,0.8,1.1,1.7,1.1,2.8
		C90.6,36.5,90.2,37.4,89.6,38.2z"/>
	<path d="M39.2,22.7h-2.9c-0.3,0-0.6,0.2-0.6,0.5c0,0.3,0.2,0.5,0.6,0.5h2.9c0.3,0,0.6-0.2,0.6-0.5C39.7,23,39.5,22.7,39.2,22.7z"/>
	<path d="M27.7,31.5c-1-1-2.3-1.6-3.8-1.6c-1.5,0-2.8,0.6-3.8,1.6c-0.3,0.3-0.6,0.7-0.9,1.1c-0.5,0.8-0.8,1.8-0.8,2.8
		c0,1,0.3,2,0.8,2.8c0.2,0.4,0.5,0.8,0.8,1.1c1,1,2.4,1.6,3.9,1.6c1.5,0,2.9-0.6,3.9-1.6c0.3-0.3,0.6-0.7,0.8-1.1
		c0.5-0.8,0.8-1.8,0.8-2.8c0-1-0.3-2-0.8-2.8C28.3,32.2,28,31.8,27.7,31.5z M27.2,38.2c-0.4,0.5-0.8,0.8-1.4,1.1
		c-0.6,0.3-1.3,0.5-2,0.5s-1.4-0.2-2-0.5c-0.5-0.3-1-0.6-1.4-1.1c-0.6-0.8-1-1.7-1-2.8c0-1.1,0.4-2.1,1.1-2.8
		c0.4-0.5,0.9-0.8,1.4-1.1c0.6-0.3,1.2-0.5,1.9-0.5c0.7,0,1.4,0.2,1.9,0.5c0.5,0.3,1,0.6,1.4,1.1c0.7,0.8,1.1,1.7,1.1,2.8
		C28.3,36.5,27.9,37.4,27.2,38.2z"/>
	<path d="M65.1,18.2l-12.5-5.7C50.8,11.7,49,11,47,10.6c-3.2-0.7-6.4-0.8-9.6-0.2l-1.1,0.2c-4.3,0.8-8.2,2.9-11.3,6.1
		c-0.4,0.5-0.5,1.1-0.3,1.7c0.2,0.6,0.8,0.9,1.4,1l38.6,0.8h0c0.5,0,0.9-0.3,1-0.8C65.8,18.9,65.6,18.4,65.1,18.2z M33.6,18.4
		l-7.4-0.2c-0.3,0-0.4-0.2-0.4-0.3c0-0.1-0.1-0.3,0.1-0.5c2.2-2.3,4.8-4,7.7-5V18.4z M34.7,18.4v-6.3c0.6-0.2,1.2-0.3,1.8-0.4
		l1.1-0.2c1.4-0.3,2.7-0.4,4.1-0.4c1.7,0,3.4,0.2,5.1,0.6c1.8,0.4,3.6,1,5.4,1.8l12,5.5L34.7,18.4z"/>
</g>
<g class="st0">
	<path class="st2" d="M155.1,447.2l-9.5-1.3c-0.9-0.1-1.8-0.5-2.6-1.1l-6.3-4.8c-3-2.3-6.8-3.6-10.6-3.6h-10
		c-8.5,0-16.3,4.6-20.5,12l0,0.2v10.5c0,1.8,1.5,3.3,3.3,3.3h4.7c1.2,1.9,3.3,3.2,5.7,3.2c2.4,0,4.5-1.3,5.7-3.2h30.1
		c1.2,1.9,3.3,3.2,5.7,3.2c2.4,0,4.5-1.3,5.7-3.2h3.4h0c0.9,0,1.8-0.4,2.5-1c0.7-0.7,1-1.5,1-2.5v-2.1
		C163.5,452,159.9,447.9,155.1,447.2z M96.5,454.4h1.8c0.2,0,0.4-0.2,0.4-0.4s-0.2-0.4-0.4-0.4h-1.8v-1.2h1.8c0.2,0,0.4-0.2,0.4-0.4
		c0-0.2-0.2-0.4-0.4-0.4h-1.8v-1.2h1.8c0.2,0,0.4-0.2,0.4-0.4c0-0.2-0.2-0.4-0.4-0.4h-1.8v-0.9c4-7.1,11.6-11.5,19.8-11.5h10
		c3.6,0,7.2,1.2,10.1,3.4l6.3,4.8c0.9,0.7,1.9,1.1,3,1.2l9.5,1.3c2.1,0.3,4,1.3,5.4,2.8h-3.7c-0.2,0-0.4,0.2-0.4,0.4
		c0,0.2,0.2,0.4,0.4,0.4h4.3c1,1.4,1.6,3.1,1.7,5h-5.5c-1-2.5-3.4-4.3-6.3-4.3c-2.9,0-5.3,1.8-6.3,4.3h-29c-1-2.5-3.4-4.3-6.3-4.3
		c-2.9,0-5.3,1.8-6.3,4.3h-6.7V454.4z M99,461.7c-1.4,0-2.5-1.1-2.5-2.5v-1.9h6.5c-0.1,0.5-0.2,1.1-0.2,1.6c0,1,0.2,1.9,0.6,2.8H99z
		 M114.7,461.7c-0.1,0.1-0.1,0.3-0.2,0.4c-0.1,0.1-0.2,0.3-0.3,0.4c-1.1,1.4-2.8,2.4-4.7,2.4c-1.9,0-3.7-1-4.7-2.4
		c-0.1-0.1-0.2-0.3-0.3-0.4c-0.1-0.1-0.1-0.3-0.2-0.4c-0.4-0.8-0.7-1.8-0.7-2.8c0-0.6,0.1-1.1,0.3-1.6c0-0.1,0.1-0.3,0.1-0.4
		c0-0.1,0.1-0.3,0.1-0.4c0.9-2.1,3-3.6,5.4-3.6c2.4,0,4.5,1.5,5.4,3.6c0.1,0.1,0.1,0.3,0.1,0.4c0,0.1,0.1,0.3,0.1,0.4
		c0.1,0.5,0.3,1.1,0.3,1.6C115.4,460,115.1,460.9,114.7,461.7z M115.5,461.7c0.4-0.8,0.6-1.8,0.6-2.8c0-0.6-0.1-1.1-0.2-1.6h28.5
		c-0.1,0.5-0.2,1.1-0.2,1.6c0,1,0.2,1.9,0.6,2.8H115.5z M156.2,461.7c-0.1,0.1-0.1,0.3-0.2,0.4c-0.1,0.1-0.2,0.3-0.3,0.4
		c-1.1,1.4-2.8,2.4-4.7,2.4c-1.9,0-3.7-1-4.7-2.4c-0.1-0.1-0.2-0.3-0.3-0.4c-0.1-0.1-0.1-0.3-0.2-0.4c-0.4-0.8-0.7-1.8-0.7-2.8
		c0-0.6,0.1-1.1,0.3-1.6c0-0.1,0.1-0.3,0.1-0.4c0-0.1,0.1-0.3,0.1-0.4c0.9-2.1,3-3.6,5.4-3.6c2.4,0,4.5,1.5,5.4,3.6
		c0.1,0.1,0.1,0.3,0.1,0.4c0,0.1,0.1,0.3,0.1,0.4c0.1,0.5,0.3,1.1,0.3,1.6C156.9,460,156.6,460.9,156.2,461.7z M162.8,459
		c0,0.7-0.3,1.4-0.8,1.9c-0.5,0.5-1.2,0.8-1.9,0.8h0h-3c0.4-0.8,0.6-1.8,0.6-2.8c0-0.6-0.1-1.1-0.2-1.6h5.3V459z"/>
	<path class="st2" d="M120,448.4h-2c-0.2,0-0.4,0.2-0.4,0.4c0,0.2,0.2,0.4,0.4,0.4h2c0.2,0,0.4-0.2,0.4-0.4
		C120.4,448.6,120.3,448.4,120,448.4z"/>
	<path class="st2" d="M154.2,456.9c-0.1-0.1-0.2-0.3-0.3-0.4c-0.7-0.9-1.8-1.5-3-1.5c-1.2,0-2.3,0.6-3,1.5c-0.1,0.1-0.2,0.3-0.3,0.4
		c-0.1,0.1-0.1,0.3-0.2,0.4c-0.2,0.5-0.4,1-0.4,1.6c0,1.1,0.5,2.1,1.2,2.8c0.1,0.1,0.3,0.3,0.5,0.4c0.2,0.2,0.4,0.3,0.7,0.4
		c0.5,0.2,1,0.3,1.5,0.3c0.5,0,1-0.1,1.5-0.3c0.2-0.1,0.5-0.2,0.7-0.4c0.2-0.1,0.3-0.2,0.5-0.4c0.7-0.7,1.2-1.7,1.2-2.8
		c0-0.6-0.1-1.1-0.4-1.6C154.4,457.2,154.3,457.1,154.2,456.9z M152.3,461.7c-0.4,0.2-0.8,0.3-1.3,0.3c-0.5,0-0.9-0.1-1.3-0.3
		c-1-0.5-1.8-1.6-1.8-2.8c0-0.6,0.2-1.1,0.5-1.6c0.1-0.1,0.2-0.3,0.3-0.4c0.1-0.1,0.3-0.3,0.4-0.4c0.5-0.4,1.2-0.7,1.9-0.7
		c0.7,0,1.4,0.3,1.9,0.7c0.1,0.1,0.3,0.2,0.4,0.4c0.1,0.1,0.2,0.2,0.3,0.4c0.3,0.5,0.5,1,0.5,1.6C154,460.2,153.3,461.2,152.3,461.7
		z"/>
	<path class="st2" d="M112.7,456.9c-0.1-0.1-0.2-0.3-0.3-0.4c-0.7-0.9-1.8-1.5-3-1.5c-1.2,0-2.3,0.6-3,1.5c-0.1,0.1-0.2,0.3-0.3,0.4
		c-0.1,0.1-0.1,0.3-0.2,0.4c-0.2,0.5-0.4,1-0.4,1.6c0,1.1,0.5,2.1,1.2,2.8c0.1,0.1,0.3,0.3,0.5,0.4c0.2,0.2,0.4,0.3,0.7,0.4
		c0.5,0.2,1,0.3,1.5,0.3c0.5,0,1-0.1,1.5-0.3c0.2-0.1,0.5-0.2,0.7-0.4c0.2-0.1,0.3-0.2,0.5-0.4c0.7-0.7,1.2-1.7,1.2-2.8
		c0-0.6-0.1-1.1-0.4-1.6C112.9,457.2,112.8,457.1,112.7,456.9z M110.8,461.7c-0.4,0.2-0.8,0.3-1.3,0.3c-0.5,0-0.9-0.1-1.3-0.3
		c-1-0.5-1.8-1.6-1.8-2.8c0-0.6,0.2-1.1,0.5-1.6c0.1-0.1,0.2-0.3,0.3-0.4c0.1-0.1,0.3-0.3,0.4-0.4c0.5-0.4,1.2-0.7,1.9-0.7
		c0.7,0,1.4,0.3,1.9,0.7c0.1,0.1,0.3,0.2,0.4,0.4c0.1,0.1,0.2,0.2,0.3,0.4c0.3,0.5,0.5,1,0.5,1.6
		C112.5,460.2,111.8,461.2,110.8,461.7z"/>
	<path class="st2" d="M108.3,446.6l32,1.1l0,0c0.4,0,0.7-0.2,0.8-0.6c0.1-0.4,0-0.7-0.3-1l-5.7-4.2c-2.6-1.9-5.7-3-8.9-3H118
		c-4.1,0-8,1.6-10.9,4.5c-0.5,0.5-0.7,1.3-0.4,1.9C106.9,446.2,107.5,446.6,108.3,446.6z M118,439.8h8.2c3,0,6,1,8.5,2.8l5.7,4.2
		l0,0.1l-0.1,0.1l-26.6-0.9l2.4-6.1C116.7,439.9,117.3,439.8,118,439.8z M107.6,444.1c2.1-2.1,4.7-3.5,7.6-4l-2.3,6l-4.6-0.2
		c-0.5,0-0.8-0.3-0.9-0.7C107.2,444.9,107.2,444.5,107.6,444.1z"/>
</g>
<g class="st0">
	<path class="st1" d="M94.5,18.2L76.9,16c-0.2,0-0.5-0.1-0.6-0.3h0L66.1,4c-1.7-2-4.2-3.1-6.8-3.1H21.3c-2.8,0-5.4,1.3-7.1,3.5
		L5.3,16.2C4.4,17.3,4,18.6,4,19.9v11c0,3.6,3,6.5,6.6,6.5h4.3c1.3,4.4,5.4,7.5,10.3,7.5c4.8,0,8.9-3.2,10.3-7.5h36.5
		c1.3,4.4,5.4,7.5,10.3,7.5c4.8,0,8.9-3.2,10.3-7.5h5.2c2.4,0,4.3-1.9,4.3-4.2v-6.6C102,22.3,98.8,18.7,94.5,18.2z M14.4,34.4
		c0,0.7,0.1,1.3,0.2,2h-4c-2.9,0-5.3-2.3-5.5-5.1h9.8C14.6,32.2,14.4,33.2,14.4,34.4z M34.5,36.3c0,0.2-0.1,0.4-0.1,0.5
		c-0.1,0.2-0.1,0.4-0.2,0.5c-1.3,3.7-4.9,6.5-9.1,6.5c-4.2,0-7.8-2.7-9.1-6.5c-0.1-0.2-0.1-0.4-0.2-0.5c0-0.2-0.1-0.4-0.1-0.5
		c-0.1-0.6-0.2-1.3-0.2-2c0-1.1,0.2-2.2,0.6-3.2c0.1-0.2,0.1-0.4,0.2-0.5c0.1-0.2,0.2-0.4,0.3-0.5c1.6-3.1,4.8-5.2,8.6-5.2
		c3.8,0,7,2.1,8.6,5.2c0.1,0.2,0.2,0.4,0.3,0.5c0.1,0.2,0.1,0.4,0.2,0.5c0.4,1,0.6,2.1,0.6,3.2C34.7,35,34.7,35.7,34.5,36.3z
		 M71.5,34.4c0,0.7,0.1,1.3,0.2,2h-36c0.1-0.6,0.2-1.3,0.2-2c0-1.1-0.2-2.2-0.5-3.2H72C71.6,32.2,71.5,33.2,71.5,34.4z M91.6,36.3
		c0,0.2-0.1,0.4-0.1,0.5c-0.1,0.2-0.1,0.4-0.2,0.5c-1.3,3.7-4.9,6.5-9.1,6.5c-4.2,0-7.8-2.7-9.1-6.5C73,37.2,73,37,72.9,36.9
		c0-0.2-0.1-0.4-0.1-0.5c-0.1-0.6-0.2-1.3-0.2-2c0-1.1,0.2-2.2,0.6-3.2c0.1-0.2,0.1-0.4,0.2-0.5c0.1-0.2,0.2-0.4,0.3-0.5
		c1.6-3.1,4.8-5.2,8.6-5.2c3.8,0,7,2.1,8.6,5.2c0.1,0.2,0.2,0.4,0.3,0.5c0.1,0.2,0.1,0.4,0.2,0.5c0.4,1,0.6,2.1,0.6,3.2
		C91.8,35,91.8,35.7,91.6,36.3z M100.9,33.2c0,1.7-1.4,3.1-3.2,3.1h-5c0.1-0.6,0.2-1.3,0.2-2c0-1.1-0.2-2.2-0.5-3.2h8.5V33.2z
		 M100.9,30.1H92c-1.7-3.7-5.4-6.3-9.8-6.3c-4.4,0-8.2,2.6-9.8,6.3H34.9c-1.7-3.7-5.4-6.3-9.8-6.3s-8.2,2.6-9.8,6.3H5.1v-3.7h3.2
		c0.3,0,0.5-0.2,0.5-0.5c0-0.3-0.2-0.5-0.5-0.5H5.1v-3.6h3.2c0.3,0,0.5-0.2,0.5-0.5c0-0.3-0.2-0.5-0.5-0.5H5.1v-0.7
		c0-1.1,0.4-2.2,1-3.1l8.9-11.8C16.5,3.2,18.8,2,21.3,2h38.1c2.3,0,4.5,1,5.9,2.7l10.1,11.7c0.3,0.4,0.8,0.6,1.3,0.7l17.6,2.2
		c2.4,0.3,4.4,1.7,5.5,3.6h-5c-0.3,0-0.5,0.2-0.5,0.5c0,0.3,0.2,0.5,0.5,0.5h5.5c0,0,0,0,0,0c0.3,0.8,0.5,1.7,0.5,2.6V30.1z"/>
	<path class="st1" d="M87,30.6c-0.1-0.2-0.3-0.4-0.5-0.5c-1.1-1.1-2.7-1.8-4.4-1.8c-1.7,0-3.2,0.7-4.4,1.8c-0.2,0.2-0.3,0.4-0.5,0.5
		c-0.1,0.2-0.3,0.4-0.4,0.5c-0.6,0.9-0.9,2-0.9,3.2c0,0.7,0.1,1.3,0.4,2c0.1,0.2,0.1,0.4,0.2,0.5c0.1,0.2,0.2,0.4,0.3,0.5
		c1.1,1.8,3,3,5.3,3c2.3,0,4.2-1.2,5.3-3c0.1-0.2,0.2-0.4,0.3-0.5c0.1-0.2,0.1-0.4,0.2-0.5c0.2-0.6,0.4-1.3,0.4-2
		c0-1.2-0.4-2.2-0.9-3.2C87.3,31,87.1,30.8,87,30.6z M86.8,36.3c-0.1,0.2-0.2,0.4-0.3,0.5c-0.1,0.2-0.2,0.4-0.4,0.5
		c-0.9,1.2-2.3,1.9-4,1.9c-1.6,0-3-0.8-4-1.9c-0.1-0.2-0.3-0.4-0.4-0.5c-0.1-0.2-0.2-0.4-0.3-0.5c-0.3-0.6-0.4-1.3-0.4-2
		c0-1.2,0.5-2.3,1.2-3.2c0.2-0.2,0.3-0.4,0.5-0.5c0.2-0.2,0.5-0.4,0.8-0.5c0.8-0.4,1.6-0.7,2.6-0.7c0.9,0,1.8,0.3,2.6,0.7
		c0.3,0.2,0.5,0.3,0.8,0.5c0.2,0.2,0.4,0.3,0.5,0.5c0.7,0.9,1.2,2,1.2,3.2C87.2,35,87.1,35.7,86.8,36.3z"/>
	<path class="st1" d="M29.9,30.6c-0.1-0.2-0.3-0.4-0.5-0.5c-1.1-1.1-2.7-1.8-4.4-1.8c-1.7,0-3.2,0.7-4.4,1.8
		c-0.2,0.2-0.3,0.4-0.5,0.5c-0.1,0.2-0.3,0.4-0.4,0.5c-0.6,0.9-0.9,2-0.9,3.2c0,0.7,0.1,1.3,0.4,2c0.1,0.2,0.1,0.4,0.2,0.5
		c0.1,0.2,0.2,0.4,0.3,0.5c1.1,1.8,3,3,5.3,3c2.3,0,4.2-1.2,5.3-3c0.1-0.2,0.2-0.4,0.3-0.5c0.1-0.2,0.1-0.4,0.2-0.5
		c0.2-0.6,0.4-1.3,0.4-2c0-1.2-0.4-2.2-0.9-3.2C30.2,31,30.1,30.8,29.9,30.6z M29.7,36.3c-0.1,0.2-0.2,0.4-0.3,0.5
		c-0.1,0.2-0.2,0.4-0.4,0.5c-0.9,1.2-2.3,1.9-4,1.9s-3-0.8-4-1.9c-0.1-0.2-0.3-0.4-0.4-0.5c-0.1-0.2-0.2-0.4-0.3-0.5
		c-0.3-0.6-0.4-1.3-0.4-2c0-1.2,0.5-2.3,1.2-3.2c0.2-0.2,0.3-0.4,0.5-0.5c0.2-0.2,0.5-0.4,0.8-0.5c0.8-0.4,1.6-0.7,2.6-0.7
		c0.9,0,1.8,0.3,2.6,0.7c0.3,0.2,0.5,0.3,0.8,0.5c0.2,0.2,0.4,0.3,0.5,0.5c0.7,0.9,1.2,2,1.2,3.2C30.2,35,30,35.7,29.7,36.3z"/>
	<path class="st1" d="M53.8,18.4h-2.8c-0.3,0-0.5,0.2-0.5,0.5c0,0.3,0.2,0.5,0.5,0.5h2.8c0.3,0,0.5-0.2,0.5-0.5
		C54.3,18.6,54.1,18.4,53.8,18.4z"/>
	<path class="st1" d="M34,18.4h-2.8c-0.3,0-0.5,0.2-0.5,0.5c0,0.3,0.2,0.5,0.5,0.5H34c0.3,0,0.5-0.2,0.5-0.5
		C34.5,18.6,34.3,18.4,34,18.4z"/>
	<path class="st1" d="M65,6.3c-1.3-1.7-3.4-2.6-5.5-2.6H24.7c-2.2,0-4.3,1-5.6,2.8l-5.9,7.8c-0.4,0.5-0.4,1.2-0.2,1.7
		c0.3,0.6,0.9,0.9,1.5,0.9h55.7c0.6,0,1.2-0.4,1.5-0.9c0.3-0.6,0.2-1.2-0.2-1.7L65,6.3z M14.5,15.9c-0.2,0-0.4-0.1-0.5-0.3
		c-0.1-0.2-0.1-0.4,0.1-0.6l5.9-7.8c1.1-1.5,2.9-2.4,4.8-2.4H29l-2.8,11.1H14.5z M27.3,15.9l2.8-11.1h16.4L48,15.9H27.3z M49.1,15.9
		L47.7,4.8h11.8c0.4,0,0.8,0.1,1.2,0.1l0,0l4.3,10.9H49.1z M70.6,15.5c-0.1,0.2-0.3,0.3-0.5,0.3h-4L61.9,5.3
		c0.8,0.4,1.6,0.9,2.2,1.7l6.4,8C70.7,15.1,70.7,15.3,70.6,15.5z"/>
</g>
<g class="st0">
	<path class="st2" d="M112.9,486.9c-0.7-3.9-3.6-6.9-7.5-7.8l-4-0.9c-2.6-6.3-8.6-10.4-15.5-10.4h-5.9c-9,0-16.3,7-16.7,16l-0.1,2.6
		c-0.1,1.7,0.5,3.2,1.7,4.4c0.6,0.6,1.3,1.1,2.1,1.4c0.9,2.7,3.4,4.7,6.4,4.7c2.8,0,5.3-1.8,6.3-4.3l16.8,0c1,2.5,3.4,4.3,6.3,4.3
		c2.8,0,5.3-1.8,6.3-4.3h0.9c1.8,0,3.3-1.5,3.3-3.3C113.2,488.6,113.1,487.7,112.9,486.9z M66.8,491.3c-0.5-0.3-0.9-0.6-1.3-1
		c-0.5-0.5-0.8-1.1-1.1-1.7h2.5c-0.1,0.5-0.2,1.1-0.2,1.6C66.7,490.6,66.8,491,66.8,491.3z M79.1,492c0,0.1-0.1,0.3-0.1,0.4
		c0,0.1-0.1,0.3-0.2,0.4c-0.9,2.1-3,3.5-5.4,3.5c-2.5,0-4.6-1.5-5.5-3.7c-0.1-0.1-0.1-0.3-0.1-0.4c-0.1-0.2-0.1-0.3-0.1-0.5
		c-0.1-0.5-0.2-0.9-0.2-1.4c0-0.6,0.1-1.1,0.3-1.6c0-0.1,0.1-0.3,0.1-0.4c0-0.1,0.1-0.3,0.1-0.4c0.9-2.1,3-3.6,5.4-3.6
		c2.4,0,4.5,1.5,5.4,3.6c0.1,0.1,0.1,0.3,0.1,0.4c0,0.1,0.1,0.3,0.1,0.4c0.1,0.5,0.3,1.1,0.3,1.6C79.4,490.9,79.3,491.4,79.1,492z
		 M79.9,492c0.1-0.5,0.2-1.1,0.2-1.7c0-0.6-0.1-1.1-0.2-1.6h16.3c-0.1,0.5-0.2,1.1-0.2,1.6c0,0.6,0.1,1.1,0.2,1.7L79.9,492z
		 M108.5,492c0,0.1-0.1,0.3-0.1,0.4c0,0.1-0.1,0.3-0.2,0.4c-0.9,2.1-3,3.5-5.4,3.5c-2.4,0-4.5-1.4-5.4-3.5c-0.1-0.1-0.1-0.3-0.2-0.4
		c0-0.1-0.1-0.3-0.1-0.4c-0.2-0.5-0.3-1.1-0.3-1.7c0-0.6,0.1-1.1,0.3-1.6c0-0.1,0.1-0.3,0.1-0.4c0-0.1,0.1-0.3,0.1-0.4
		c0.9-2.1,3-3.6,5.4-3.6c2.4,0,4.5,1.5,5.4,3.6c0.1,0.1,0.1,0.3,0.1,0.4c0,0.1,0.1,0.3,0.1,0.4c0.1,0.5,0.3,1.1,0.3,1.6
		C108.7,490.9,108.6,491.4,108.5,492z M102.8,483.6c-2.9,0-5.3,1.8-6.3,4.3H79.7c-1-2.5-3.4-4.3-6.3-4.3c-2.9,0-5.3,1.8-6.3,4.3
		h-2.9c0,0-0.1,0-0.1,0c-0.1-0.5-0.2-0.9-0.2-1.4l0.1-2.6c0-0.3,0.1-0.7,0.1-1h1.1c0.2,0,0.4-0.2,0.4-0.4c0-0.2-0.2-0.4-0.4-0.4h-1
		c0.1-0.4,0.1-0.8,0.2-1.2h1.1c0.2,0,0.4-0.2,0.4-0.4s-0.2-0.4-0.4-0.4h-0.8c1.9-6.7,8.1-11.5,15.3-11.5H86c6.6,0,12.4,4,14.8,10.1
		c0,0.1,0.2,0.2,0.3,0.2l4.2,0.9c1.6,0.4,3.1,1.2,4.3,2.3h-2.4c-0.2,0-0.4,0.2-0.4,0.4c0,0.2,0.2,0.4,0.4,0.4h3.1
		c0.9,1.2,1.6,2.5,1.9,4.1c0.1,0.3,0.1,0.6,0.1,0.9h-3.2C108.1,485.4,105.6,483.6,102.8,483.6z M109.9,492h-0.6
		c0.1-0.5,0.2-1.1,0.2-1.7c0-0.6-0.1-1.1-0.2-1.6h3.1c0,0.3,0,0.5,0,0.8C112.4,490.8,111.3,492,109.9,492z"/>
	<path class="st2" d="M80.2,480.1h-2c-0.2,0-0.4,0.2-0.4,0.4c0,0.2,0.2,0.4,0.4,0.4h2c0.2,0,0.4-0.2,0.4-0.4
		C80.6,480.3,80.5,480.1,80.2,480.1z"/>
	<path class="st2" d="M106.1,488.3c-0.1-0.1-0.2-0.3-0.3-0.4c-0.7-0.9-1.8-1.5-3-1.5c-1.2,0-2.3,0.6-3,1.5c-0.1,0.1-0.2,0.3-0.3,0.4
		c-0.1,0.1-0.1,0.3-0.2,0.4c-0.2,0.5-0.4,1-0.4,1.6c0,0.6,0.2,1.2,0.4,1.7c0.1,0.1,0.1,0.3,0.2,0.4c0.1,0.1,0.2,0.3,0.3,0.4
		c0.7,0.9,1.8,1.4,3,1.4c1.2,0,2.3-0.6,3-1.4c0.1-0.1,0.2-0.2,0.3-0.4c0.1-0.1,0.1-0.3,0.2-0.4c0.2-0.5,0.4-1.1,0.4-1.7
		c0-0.6-0.1-1.1-0.4-1.6C106.2,488.5,106.1,488.4,106.1,488.3z M105.4,492c-0.1,0.1-0.2,0.3-0.3,0.4c-0.1,0.1-0.3,0.3-0.4,0.4
		c-0.5,0.4-1.2,0.6-1.9,0.6c-0.7,0-1.3-0.2-1.9-0.6c-0.2-0.1-0.3-0.2-0.4-0.4c-0.1-0.1-0.2-0.2-0.3-0.4c-0.3-0.5-0.5-1.1-0.5-1.7
		c0-0.6,0.2-1.1,0.5-1.6c0.1-0.1,0.2-0.3,0.3-0.4c0.1-0.1,0.3-0.3,0.4-0.4c0.5-0.4,1.2-0.7,1.9-0.7c0.7,0,1.4,0.3,1.9,0.7
		c0.1,0.1,0.3,0.2,0.4,0.4c0.1,0.1,0.2,0.2,0.3,0.4c0.3,0.5,0.5,1,0.5,1.6C105.9,490.9,105.7,491.5,105.4,492z"/>
	<path class="st2" d="M76.7,488.3c-0.1-0.1-0.2-0.3-0.3-0.4c-0.7-0.9-1.8-1.5-3-1.5c-1.2,0-2.3,0.6-3,1.5c-0.1,0.1-0.2,0.3-0.3,0.4
		c-0.1,0.1-0.1,0.3-0.2,0.4c-0.2,0.5-0.4,1-0.4,1.6c0,0.6,0.2,1.2,0.4,1.7c0.1,0.1,0.1,0.3,0.2,0.4c0.1,0.1,0.2,0.3,0.3,0.4
		c0.7,0.9,1.8,1.4,3,1.4c1.2,0,2.3-0.6,3-1.4c0.1-0.1,0.2-0.2,0.3-0.4c0.1-0.1,0.1-0.3,0.2-0.4c0.2-0.5,0.4-1.1,0.4-1.7
		c0-0.6-0.1-1.1-0.4-1.6C76.9,488.5,76.8,488.4,76.7,488.3z M76,492c-0.1,0.1-0.2,0.3-0.3,0.4c-0.1,0.1-0.3,0.3-0.4,0.4
		c-0.5,0.4-1.2,0.6-1.9,0.6c-0.7,0-1.3-0.2-1.9-0.6c-0.2-0.1-0.3-0.2-0.4-0.4c-0.1-0.1-0.2-0.2-0.3-0.4c-0.3-0.5-0.5-1.1-0.5-1.7
		c0-0.6,0.2-1.1,0.5-1.6c0.1-0.1,0.2-0.3,0.3-0.4c0.1-0.1,0.3-0.3,0.4-0.4c0.5-0.4,1.2-0.7,1.9-0.7c0.7,0,1.4,0.3,1.9,0.7
		c0.1,0.1,0.3,0.2,0.4,0.4c0.1,0.1,0.2,0.2,0.3,0.4c0.3,0.5,0.5,1,0.5,1.6C76.5,490.9,76.3,491.5,76,492z"/>
	<path class="st2" d="M97.6,476.5c-2.6-3.9-7-6.3-12-6.5l-3.4-0.1c-5.2-0.2-9.9,2-12.9,5.9c-0.3,0.5-0.4,1.1-0.2,1.6
		c0.2,0.5,0.8,0.9,1.3,0.9l5.4,0.2c0,0,0,0,0,0l0,0c0,0,0,0,0,0l22.8,1h0c0.1,0,0.3-0.1,0.3-0.2c0.1-0.1,0.1-0.3,0-0.4L97.6,476.5z
		 M75.6,477.8l-5.1-0.2c-0.3,0-0.5-0.2-0.7-0.4c-0.1-0.3-0.1-0.6,0.1-0.8c1.6-2.2,3.9-3.8,6.4-4.7L75.6,477.8z M76.4,477.8l0.8-6.4
		c1.4-0.4,2.9-0.6,4.4-0.6c0.2,0,0.4,0,0.5,0l3.4,0.1c4.8,0.2,9,2.4,11.4,6.1l1.2,1.8L76.4,477.8z"/>
</g>
<g class="st0">
	<path class="st1" d="M99.7,20.2l-9.8-3.7l-18.2-9c-6-3-12.7-4.6-19.4-4.6H13.7c-2,0-4,1.1-5,2.9L2,17.4c-0.7,0.9-1,2-1,3.2l0,7.6
		c0,6.1,4.9,11.1,10.8,11.1h1.2c1.5,3.4,4.8,5.8,8.7,5.8c3.9,0,7.2-2.4,8.7-5.8h46.1c1.5,3.4,4.8,5.8,8.7,5.8c3.9,0,7.2-2.4,8.7-5.8
		h0.3c6,0,10.8-5,10.8-11.1C105,24.6,102.9,21.5,99.7,20.2z M12.7,38.1h-0.8c-3.9,0-7.2-2.3-8.8-5.7h9.6c-0.3,0.9-0.4,1.9-0.4,2.9
		C12.2,36.2,12.4,37.2,12.7,38.1z M29.7,38.1c-0.1,0.4-0.3,0.8-0.5,1.1c-1.4,2.7-4.2,4.6-7.4,4.6s-6-1.9-7.4-4.6
		c-0.2-0.4-0.3-0.7-0.5-1.1c-0.3-0.9-0.5-1.8-0.5-2.8c0-1,0.2-2,0.5-2.9c0.1-0.4,0.3-0.8,0.5-1.1c1.4-2.7,4.2-4.6,7.4-4.6
		c3.2,0,6,1.9,7.4,4.6c0.2,0.4,0.4,0.7,0.5,1.1c0.3,0.9,0.5,1.9,0.5,2.9C30.2,36.2,30,37.2,29.7,38.1z M76.1,38.1H30.9
		c0.3-0.9,0.4-1.9,0.4-2.8c0-1-0.1-2-0.4-2.9h45.3c-0.3,0.9-0.4,1.9-0.4,2.9C75.7,36.2,75.8,37.2,76.1,38.1z M93.1,38.1
		c-0.1,0.4-0.3,0.8-0.5,1.1c-1.4,2.7-4.2,4.6-7.4,4.6c-3.2,0-6-1.9-7.4-4.6c-0.2-0.4-0.3-0.7-0.5-1.1c-0.3-0.9-0.5-1.8-0.5-2.8
		c0-1,0.2-2,0.5-2.9c0.1-0.4,0.3-0.8,0.5-1.1c1.4-2.7,4.2-4.6,7.4-4.6c3.2,0,6,1.9,7.4,4.6c0.2,0.4,0.4,0.7,0.5,1.1
		c0.3,0.9,0.5,1.9,0.5,2.9C93.6,36.2,93.4,37.2,93.1,38.1z M94.3,38c0.3-0.9,0.4-1.8,0.4-2.8c0-1-0.1-2-0.4-2.9h8.7
		C101.4,35.7,98.1,38,94.3,38z M93.9,31.2c-1.5-3.4-4.8-5.7-8.7-5.7c-3.9,0-7.2,2.4-8.7,5.7H30.4c-1.5-3.4-4.8-5.7-8.7-5.7
		c-3.9,0-7.2,2.4-8.7,5.7H2.6c-0.3-1-0.5-2-0.5-3.1l0-4.4h4.8c0.3,0,0.5-0.3,0.5-0.6s-0.2-0.6-0.5-0.6H2.1l0-2
		c0-0.9,0.3-1.8,0.8-2.5L9.6,6.4C10.5,5,12,4.1,13.7,4.1h38.6c6.5,0,13.1,1.5,18.9,4.4l18.3,9l9.9,3.7c1.5,0.6,2.7,1.6,3.5,3h-5.5
		c-0.3,0-0.5,0.3-0.5,0.6c0,0.3,0.2,0.6,0.5,0.6h6.1c0.3,0.9,0.5,1.8,0.5,2.7c0,1.1-0.2,2.1-0.5,3.1H93.9z"/>
	<path class="st1" d="M89,31.2c-1-1-2.3-1.6-3.8-1.6c-1.5,0-2.8,0.6-3.8,1.6c-0.3,0.3-0.6,0.7-0.9,1.1c-0.5,0.8-0.8,1.8-0.8,2.9
		c0,1,0.3,2,0.8,2.8c0.2,0.4,0.5,0.8,0.8,1.1c1,1,2.4,1.6,3.9,1.6c1.5,0,2.9-0.6,3.9-1.6c0.3-0.3,0.6-0.7,0.8-1.1
		c0.5-0.8,0.8-1.8,0.8-2.8c0-1.1-0.3-2-0.8-2.9C89.6,31.9,89.3,31.5,89,31.2z M88.6,38.1c-0.4,0.5-0.8,0.8-1.4,1.1
		c-0.6,0.3-1.3,0.5-2,0.5c-0.7,0-1.4-0.2-2-0.5c-0.5-0.3-1-0.7-1.4-1.1c-0.6-0.8-1-1.8-1-2.8c0-1.1,0.4-2.1,1.1-2.9
		c0.4-0.5,0.9-0.8,1.4-1.1c0.6-0.3,1.2-0.5,1.9-0.5c0.7,0,1.3,0.2,1.9,0.5c0.5,0.3,1,0.7,1.4,1.1c0.6,0.8,1.1,1.8,1.1,2.9
		C89.6,36.3,89.2,37.3,88.6,38.1z"/>
	<path class="st1" d="M12.1,6.8c-0.3-0.2-0.6-0.1-0.8,0.2L4.7,18.6c-0.2,0.3-0.1,0.6,0.2,0.8l0.3,0.1c0.2,0,0.4-0.1,0.5-0.3
		l6.7-11.6C12.5,7.3,12.4,7,12.1,6.8z"/>
	<path class="st1" d="M59,23h-2.8c-0.3,0-0.5,0.3-0.5,0.6c0,0.3,0.2,0.6,0.5,0.6H59c0.3,0,0.5-0.3,0.5-0.6C59.5,23.3,59.3,23,59,23z
		"/>
	<path class="st1" d="M33.1,23h-2.8c-0.3,0-0.5,0.3-0.5,0.6c0,0.3,0.2,0.6,0.5,0.6h2.8c0.3,0,0.5-0.3,0.5-0.6
		C33.7,23.3,33.4,23,33.1,23z"/>
	<path class="st1" d="M25.6,31.2c-1-1-2.3-1.6-3.8-1.6c-1.5,0-2.8,0.6-3.8,1.6c-0.3,0.3-0.6,0.7-0.9,1.1c-0.5,0.8-0.8,1.8-0.8,2.9
		c0,1,0.3,2,0.8,2.8c0.2,0.4,0.5,0.8,0.8,1.1c1,1,2.3,1.6,3.9,1.6c1.5,0,2.9-0.6,3.9-1.6c0.3-0.3,0.6-0.7,0.8-1.1
		c0.5-0.8,0.8-1.8,0.8-2.8c0-1.1-0.3-2-0.8-2.9C26.2,31.9,25.9,31.5,25.6,31.2z M25.1,38.1c-0.4,0.5-0.8,0.8-1.4,1.1
		c-0.6,0.3-1.3,0.5-2,0.5c-0.7,0-1.4-0.2-2-0.5c-0.5-0.3-1-0.7-1.4-1.1c-0.6-0.8-1-1.8-1-2.8c0-1.1,0.4-2.1,1.1-2.9
		c0.4-0.5,0.9-0.8,1.4-1.1c0.6-0.3,1.2-0.5,1.9-0.5c0.7,0,1.3,0.2,1.9,0.5c0.5,0.3,1,0.7,1.4,1.1c0.6,0.8,1.1,1.8,1.1,2.9
		C26.1,36.3,25.7,37.3,25.1,38.1z"/>
	<path class="st1" d="M83.6,17l-13-6.8c-5.4-2.8-11.4-4.3-17.5-4.3H17.7c-1.7,0-3.2,1-3.9,2.6l-2,4.7c-0.5,1.1-0.4,2.3,0.2,3.3
		c0.6,1,1.7,1.6,2.8,1.6l68.3,1.2h0c0.6,0,1-0.4,1.2-0.9C84.4,17.8,84.1,17.3,83.6,17z M14.8,17c-0.8,0-1.5-0.4-1.9-1.1
		c-0.4-0.7-0.5-1.5-0.2-2.2l2-4.7c0.5-1.2,1.7-1.9,2.9-1.9h10l-2.8,10.1L14.8,17z M26,17.2l2.8-10c0-0.1,0-0.1,0-0.2h18.5l1.2,10.5
		L26,17.2z M49.7,17.6L48.4,7.1h4.7c4.9,0,9.7,1,14.2,2.9c0,0,0,0.1,0.1,0.1l7.6,8L49.7,17.6z M83.1,18.2l-6.5-0.1c0,0,0-0.1,0-0.1
		L70,11.1c0,0,0.1,0,0.1,0.1l13,6.8l0.2-0.5L83.1,18.2z"/>
</g>
<g class="st0">
	<path class="st1" d="M87,32.8l-1.4-8.1c-0.3-1.4-1.3-2.6-2.7-2.9l-11.1-2.4c-0.6-0.1-1.1-0.4-1.5-0.8L61,8.6
		c-2.2-2.3-5.3-3.7-8.5-3.7H35.8c-6.6,0-12.3,4.7-13.4,11.2l-3.3,17.9c-0.2,1.2,0.1,2.5,0.9,3.5c0.8,1,2,1.5,3.3,1.5H24
		c1.3,3.4,4.7,5.9,8.6,5.9c3.9,0,7.2-2.4,8.6-5.9l23.1,0c1.3,3.4,4.7,5.9,8.6,5.9c3.9,0,7.2-2.4,8.6-5.9h1.2h0
		c1.2,0,2.3-0.5,3.2-1.3c0.8-0.8,1.3-2,1.3-3.2L87,32.8z M23.2,38c-0.9,0-1.8-0.4-2.4-1.1c-0.6-0.7-0.9-1.7-0.7-2.6l0.1-0.8h3.4
		c-0.2,0.7-0.3,1.5-0.3,2.2c0,0.8,0.1,1.6,0.3,2.3H23.2z M40.3,38c-0.1,0.2-0.1,0.4-0.2,0.5c-0.1,0.2-0.1,0.4-0.2,0.5
		c-1.3,2.8-4.1,4.8-7.4,4.8s-6.1-2-7.4-4.8c-0.1-0.2-0.1-0.4-0.2-0.5c-0.1-0.2-0.1-0.4-0.2-0.5c-0.2-0.7-0.4-1.5-0.4-2.3
		c0-0.8,0.1-1.5,0.3-2.2c0.1-0.2,0.1-0.4,0.2-0.5c0.1-0.2,0.1-0.4,0.2-0.5c1.3-2.9,4.1-4.9,7.5-4.9c3.3,0,6.2,2,7.5,4.9
		c0.1,0.2,0.1,0.4,0.2,0.5c0.1,0.2,0.1,0.4,0.2,0.5c0.2,0.7,0.3,1.4,0.3,2.2C40.7,36.5,40.6,37.3,40.3,38z M41.5,38
		c0.2-0.7,0.3-1.5,0.3-2.3c0-0.8-0.1-1.5-0.3-2.2h22.3c-0.2,0.7-0.3,1.5-0.3,2.2c0,0.8,0.1,1.6,0.3,2.3L41.5,38z M80.6,38
		c-0.1,0.2-0.1,0.4-0.2,0.5c-0.1,0.2-0.1,0.4-0.2,0.5c-1.3,2.8-4.1,4.8-7.4,4.8s-6.1-2-7.4-4.8c-0.1-0.2-0.1-0.4-0.2-0.5
		C65.1,38.4,65,38.2,65,38c-0.2-0.7-0.4-1.5-0.4-2.3c0-0.8,0.1-1.5,0.3-2.2c0.1-0.2,0.1-0.4,0.2-0.5c0.1-0.2,0.1-0.4,0.2-0.5
		c1.3-2.9,4.1-4.9,7.5-4.9s6.2,2,7.5,4.9c0.1,0.2,0.1,0.4,0.2,0.5c0.1,0.2,0.1,0.4,0.2,0.5c0.2,0.7,0.3,1.4,0.3,2.2
		C80.9,36.5,80.8,37.3,80.6,38z M72.8,26.5c-3.9,0-7.3,2.5-8.6,5.9h-23c-1.3-3.5-4.7-5.9-8.6-5.9c-3.9,0-7.3,2.5-8.6,5.9h-3.5l1.3-7
		h2.9c0.3,0,0.5-0.2,0.5-0.5c0-0.3-0.2-0.5-0.5-0.5h-2.8l0.3-1.6H25c0.3,0,0.5-0.2,0.5-0.5c0-0.3-0.2-0.5-0.5-0.5h-2.6l1-5.4
		C24.5,10.3,29.7,6,35.8,6h16.8c2.9,0,5.7,1.2,7.7,3.3l9.2,9.9c0.5,0.6,1.2,1,2,1.1l11.1,2.4c0.9,0.2,1.6,0.9,1.8,1.7h-4.1
		c-0.3,0-0.5,0.2-0.5,0.5c0,0.3,0.2,0.5,0.5,0.5h4.3l1.2,6.8h-4.5C80,29,76.7,26.5,72.8,26.5z M85.9,34.6c0,0.9-0.4,1.8-1,2.4
		c-0.6,0.6-1.5,1-2.4,1h0h-0.8c0.2-0.7,0.3-1.5,0.3-2.3c0-0.8-0.1-1.5-0.3-2.2h4.2V34.6z"/>
	<path class="st1" d="M41.9,21.8h-2.7c-0.3,0-0.5,0.2-0.5,0.5c0,0.3,0.2,0.5,0.5,0.5h2.7c0.3,0,0.5-0.2,0.5-0.5
		C42.4,22,42.2,21.8,41.9,21.8z"/>
	<path class="st1" d="M77.3,33c-0.1-0.2-0.2-0.4-0.4-0.5c-1-1.2-2.4-2-4.1-2c-1.7,0-3.2,0.8-4.1,2c-0.1,0.2-0.3,0.3-0.4,0.5
		c-0.1,0.2-0.2,0.3-0.3,0.5c-0.3,0.7-0.5,1.4-0.5,2.2c0,0.8,0.2,1.6,0.5,2.3c0.1,0.2,0.2,0.4,0.3,0.5c0.1,0.2,0.3,0.4,0.4,0.5
		c1,1.2,2.4,1.9,4.1,1.9c1.6,0,3.1-0.8,4.1-1.9c0.1-0.2,0.3-0.3,0.4-0.5c0.1-0.2,0.2-0.3,0.3-0.5c0.3-0.7,0.5-1.5,0.5-2.3
		c0-0.8-0.2-1.5-0.5-2.2C77.5,33.3,77.4,33.1,77.3,33z M76.3,38c-0.1,0.2-0.3,0.4-0.4,0.5c-0.2,0.2-0.4,0.4-0.6,0.5
		c-0.7,0.5-1.6,0.9-2.6,0.9c-1,0-1.8-0.3-2.6-0.9c-0.2-0.2-0.4-0.3-0.6-0.5c-0.2-0.2-0.3-0.3-0.4-0.5c-0.4-0.7-0.7-1.4-0.7-2.3
		c0-0.8,0.2-1.6,0.6-2.2c0.1-0.2,0.3-0.4,0.4-0.5c0.2-0.2,0.3-0.4,0.5-0.5c0.7-0.6,1.6-1,2.6-1c1,0,1.9,0.4,2.6,1
		c0.2,0.2,0.4,0.3,0.5,0.5c0.1,0.2,0.3,0.3,0.4,0.5c0.4,0.6,0.6,1.4,0.6,2.2C77,36.6,76.7,37.4,76.3,38z"/>
	<path class="st1" d="M37.1,33c-0.1-0.2-0.2-0.4-0.4-0.5c-1-1.2-2.4-2-4.1-2c-1.7,0-3.2,0.8-4.1,2c-0.1,0.2-0.3,0.3-0.4,0.5
		c-0.1,0.2-0.2,0.3-0.3,0.5c-0.3,0.7-0.5,1.4-0.5,2.2c0,0.8,0.2,1.6,0.5,2.3c0.1,0.2,0.2,0.4,0.3,0.5c0.1,0.2,0.3,0.4,0.4,0.5
		c1,1.2,2.4,1.9,4.1,1.9c1.6,0,3.1-0.8,4.1-1.9c0.1-0.2,0.3-0.3,0.4-0.5c0.1-0.2,0.2-0.3,0.3-0.5c0.3-0.7,0.5-1.5,0.5-2.3
		c0-0.8-0.2-1.5-0.5-2.2C37.3,33.3,37.2,33.1,37.1,33z M36.1,38c-0.1,0.2-0.3,0.4-0.4,0.5c-0.2,0.2-0.4,0.4-0.6,0.5
		c-0.7,0.5-1.6,0.9-2.6,0.9c-1,0-1.8-0.3-2.6-0.9c-0.2-0.2-0.4-0.3-0.6-0.5c-0.2-0.2-0.3-0.3-0.4-0.5c-0.4-0.7-0.7-1.4-0.7-2.3
		c0-0.8,0.2-1.6,0.6-2.2c0.1-0.2,0.3-0.4,0.4-0.5c0.2-0.2,0.3-0.4,0.5-0.5c0.7-0.6,1.6-1,2.6-1c1,0,1.9,0.4,2.6,1
		c0.2,0.2,0.4,0.3,0.5,0.5c0.1,0.2,0.3,0.3,0.4,0.5c0.4,0.6,0.6,1.4,0.6,2.2C36.8,36.6,36.5,37.4,36.1,38z"/>
	<path class="st1" d="M66.3,18.7l-7-8.1c-1.8-2.1-4.4-3.3-7.2-3.3h-15c-3.3,0-6.4,2-7.7,5L28,15.4c-0.4,0.9-0.3,1.9,0.2,2.7
		c0.5,0.8,1.4,1.3,2.4,1.4l34.7,1.1l0,0c0.5,0,0.9-0.3,1.1-0.7C66.6,19.5,66.6,19,66.3,18.7L66.3,18.7z M30.6,18.5
		c-0.6,0-1.2-0.3-1.5-0.9c-0.3-0.5-0.4-1.2-0.1-1.7l1.4-3.2c0.9-1.9,2.5-3.4,4.4-4l1.5,10L30.6,18.5z M65.4,19.6L65.4,19.6l-28-0.9
		L35.9,8.4c0.4-0.1,0.8-0.1,1.3-0.1h15c2.5,0,4.8,1.1,6.4,2.9l7,8.1l0,0.1L65.4,19.6z"/>
</g>
<g class="st0">
	<path class="st2" d="M92.4,15l-8.6-0.6c-1.3-0.1-2.4-0.7-3.3-1.6l-6.1-6.8c-6.3-7-15.3-11-24.7-11H9.9c-3.5,0-6.4,2.7-6.7,6.3
		L2,27.5c0,5.2,4.2,9.4,9.3,9.4h2.9c0.9,4.6,4.9,8,9.7,8s8.8-3.4,9.7-8h41.9c0.9,4.6,4.9,8,9.7,8c4.8,0,8.8-3.5,9.7-8
		c4.9-0.2,8.9-4.3,8.9-9.3C104,21,98.9,15.4,92.4,15z M3.3,23.5h3.1C6.8,23.5,7,23.3,7,23c0-0.3-0.3-0.6-0.6-0.6H3.4l0.2-3.8h3
		c0.3,0,0.6-0.3,0.6-0.6c0-0.3-0.3-0.6-0.6-0.6h-3L4.3,1.3C4.6-1.6,7-3.9,9.9-3.9h39.8c9,0,17.7,3.9,23.8,10.6l6.1,6.8
		c1,1.2,2.5,1.9,4,2l8.6,0.6c3,0.2,5.6,1.6,7.5,3.7H94c-0.3,0-0.6,0.3-0.6,0.6c0,0.3,0.3,0.6,0.6,0.6h6.8c1.2,1.7,2,3.8,2.1,6H91.4
		c-1.7-1.3-3.7-2-6-2c-2.2,0-4.3,0.8-6,2H30c-1.7-1.3-3.7-2-6-2s-4.3,0.8-6,2H3.2L3.3,23.5z M14.1,35.8h-2.8c-4.3,0-7.8-3.4-8.1-7.7
		h13.5c-1.7,1.8-2.7,4.2-2.7,6.8C14,35.2,14.1,35.5,14.1,35.8z M32.7,35.8c0,0.2,0,0.4-0.1,0.6c0,0.2-0.1,0.4-0.1,0.6
		c-0.9,3.9-4.4,6.9-8.6,6.9s-7.6-2.9-8.6-6.9c0-0.2-0.1-0.4-0.1-0.6c0-0.2,0-0.4-0.1-0.6c0-0.3-0.1-0.6-0.1-0.8
		c0-2.8,1.3-5.2,3.3-6.8c0.2-0.2,0.5-0.4,0.7-0.6c0.3-0.2,0.7-0.4,1.1-0.6c1.1-0.6,2.4-0.9,3.8-0.9s2.6,0.3,3.8,0.9
		c0.4,0.2,0.7,0.4,1.1,0.6c0.3,0.2,0.5,0.4,0.7,0.6c2,1.6,3.3,4.1,3.3,6.8C32.8,35.2,32.7,35.5,32.7,35.8z M75.5,35.8H33.9
		c0-0.3,0-0.6,0-0.8c0-2.6-1-5-2.7-6.8h46.9c-1.7,1.8-2.7,4.2-2.7,6.8C75.4,35.2,75.4,35.5,75.5,35.8z M94.1,35.8
		c0,0.2,0,0.4-0.1,0.6c0,0.2-0.1,0.4-0.1,0.6c-0.9,3.9-4.4,6.9-8.6,6.9c-4.2,0-7.6-2.9-8.6-6.9c0-0.2-0.1-0.4-0.1-0.6
		c0-0.2,0-0.4-0.1-0.6c0-0.3-0.1-0.6-0.1-0.8c0-2.8,1.3-5.2,3.3-6.8c0.2-0.2,0.5-0.4,0.7-0.6c0.3-0.2,0.7-0.4,1.1-0.6
		c1.1-0.6,2.4-0.9,3.8-0.9c1.4,0,2.6,0.3,3.8,0.9c0.4,0.2,0.7,0.4,1.1,0.6c0.3,0.2,0.5,0.4,0.7,0.6c2,1.6,3.3,4.1,3.3,6.8
		C94.2,35.2,94.1,35.5,94.1,35.8z M95.3,35.7c0-0.3,0-0.5,0-0.8c0-2.6-1-5-2.7-6.8h10.2C102.5,32.2,99.3,35.4,95.3,35.7z"/>
	<path class="st2" d="M85.4,29.2c-3.1,0-5.7,2.6-5.7,5.7c0,0.3,0,0.6,0.1,0.8c0,0.2,0.1,0.4,0.1,0.6c0,0.2,0.1,0.4,0.2,0.6
		c0.8,2.2,2.9,3.8,5.3,3.8c2.5,0,4.5-1.6,5.3-3.8c0.1-0.2,0.1-0.4,0.2-0.6c0-0.2,0.1-0.4,0.1-0.6c0-0.3,0.1-0.6,0.1-0.8
		C91.1,31.8,88.5,29.2,85.4,29.2z M89.9,35.8c0,0.2-0.1,0.4-0.2,0.6c-0.1,0.2-0.1,0.4-0.2,0.6c-0.7,1.5-2.3,2.6-4.1,2.6
		c-1.8,0-3.4-1.1-4.1-2.6c-0.1-0.2-0.2-0.4-0.2-0.6c-0.1-0.2-0.1-0.4-0.2-0.6c-0.1-0.3-0.1-0.6-0.1-0.8c0-2.5,2-4.6,4.6-4.6
		c2.5,0,4.6,2.1,4.6,4.6C89.9,35.2,89.9,35.5,89.9,35.8z"/>
	<path class="st2" d="M24,29.2c-3.1,0-5.7,2.6-5.7,5.7c0,0.3,0,0.6,0.1,0.8c0,0.2,0.1,0.4,0.1,0.6c0,0.2,0.1,0.4,0.2,0.6
		c0.8,2.2,2.9,3.8,5.3,3.8s4.5-1.6,5.3-3.8c0.1-0.2,0.1-0.4,0.2-0.6c0-0.2,0.1-0.4,0.1-0.6c0-0.3,0.1-0.6,0.1-0.8
		C29.7,31.8,27.1,29.2,24,29.2z M28.5,35.8c0,0.2-0.1,0.4-0.2,0.6c-0.1,0.2-0.1,0.4-0.2,0.6c-0.7,1.5-2.3,2.6-4.1,2.6
		c-1.8,0-3.4-1.1-4.1-2.6c-0.1-0.2-0.2-0.4-0.2-0.6c-0.1-0.2-0.1-0.4-0.2-0.6c-0.1-0.3-0.1-0.6-0.1-0.8c0-2.5,2-4.6,4.6-4.6
		c2.5,0,4.6,2.1,4.6,4.6C28.5,35.2,28.5,35.5,28.5,35.8z"/>
	<path class="st2" d="M49.7,16.2L49.7,16.2l25.9-0.1c0.7,0,1.2-0.4,1.5-1c0.3-0.6,0.2-1.3-0.3-1.8l-4.1-4.8
		C67.2,2,59.1-1.7,50.5-1.7h-2.2c-0.6,0-1.2,0.5-1.2,1.2v14.1c0,0.7,0.3,1.3,0.7,1.8C48.4,15.9,49,16.2,49.7,16.2z M48.4-0.5h2.2
		c8.2,0,16,3.6,21.3,9.8l4.1,4.8h0c0.2,0.2,0.1,0.5,0.1,0.6c0,0.1-0.2,0.3-0.5,0.3L49.7,15h0c-0.4,0-0.7-0.1-1-0.4
		c-0.3-0.3-0.4-0.6-0.4-1L48.4-0.5z"/>
	<path class="st2" d="M53.5,20h-3c-0.3,0-0.6,0.3-0.6,0.6c0,0.3,0.3,0.6,0.6,0.6h3c0.3,0,0.6-0.3,0.6-0.6C54.1,20.2,53.8,20,53.5,20
		z"/>
	<path class="st2" d="M40.3,21.1h3c0.3,0,0.6-0.3,0.6-0.6c0-0.3-0.3-0.6-0.6-0.6h-3c-0.3,0-0.6,0.3-0.6,0.6
		C39.7,20.9,40,21.1,40.3,21.1z"/>
	<path class="st2" d="M27.6,15.9c0,0.3,0.3,0.6,0.6,0.6c0.3,0,0.6-0.3,0.6-0.6V-1.2c0-0.3-0.3-0.6-0.6-0.6c-0.3,0-0.6,0.3-0.6,0.6
		v13.4h-21c-0.3,0-0.6,0.3-0.6,0.6c0,0.3,0.3,0.6,0.6,0.6h21V15.9z"/>
</g>
<g class="st0">
	<path class="st2" d="M89,30.5c-2.4,0-4.4,1.9-4.4,4.3c0,2.4,2,4.3,4.4,4.3c2.4,0,4.4-1.9,4.4-4.3C93.4,32.5,91.4,30.5,89,30.5z
		 M89,38c-1.8,0-3.2-1.4-3.2-3.2c0-1.8,1.4-3.2,3.2-3.2s3.2,1.4,3.2,3.2C92.2,36.6,90.8,38,89,38z"/>
	<path class="st2" d="M107.1,21.3V21h-0.2c-0.8-1.3-1.9-2.3-3.4-2.9l-7.2-2.9c-1.3-0.5-2.4-1.3-3.4-2.2L83.8,3
		c-0.9-0.9-1.9-1.7-3.1-2.2h5.9c2.1,0,4-1.1,4.9-2.9L95.2-9c0.9-1.7,0.9-3.8-0.1-5.4c-1-1.7-2.8-2.7-4.8-2.7H15.1
		c-4.1,0-7.7,2.2-9.6,5.8L-0.9,1.3c-1.3,2.5-1.5,5.3-0.6,8l7.5,23c1.4,4.4,5.5,7.3,10.2,7.3h1.7c1.4,0,2.7-0.5,3.7-1.5l2.2-2.1
		c0.6,5,4.9,8.9,10.1,8.9c5.2,0,9.5-3.9,10.1-8.9l2.2,2.1c1,1,2.3,1.5,3.7,1.5h10.9c2,0,3.7-1,4.7-2.5c0.6,1.5,2.1,2.5,3.9,2.5h2.8
		c1.9,0,3.7-1,4.6-2.6l2.1-3.6c-0.1,0.5-0.1,0.9-0.1,1.4c0,5.6,4.6,10.1,10.2,10.1c5.6,0,10.2-4.5,10.2-10.1c0-0.2,0-0.3,0-0.5
		l1.5,2.6c0.9,1.6,2.7,2.6,4.6,2.6c1.4,0,2.6-1.2,2.6-2.6V24.8C108,23.5,107.7,22.3,107.1,21.3z M83,3.8l9.2,9.9
		c1.1,1.1,2.3,1.9,3.7,2.5l7.2,2.9c1,0.4,1.8,1,2.4,1.8h-39h-0.1V7.6c0-0.4,0-0.8,0.1-1.1c0.5-2.9,3.1-5.1,6.2-5.1h4.6
		C79.5,1.3,81.5,2.2,83,3.8z M15.1-15.9h75.2c1.6,0,3,0.8,3.8,2.1c0.5,0.8,0.7,1.7,0.6,2.7H6.8C8.5-14.1,11.6-15.9,15.1-15.9z
		 M2.2,16.8h3.4c0.9,0,1.8,0.6,2.1,1.5L8.6,21h-5L2.2,16.8z M3.9,22.1h5l1.9,5.8c0.2,0.7,0.1,1.4-0.3,2c-0.4,0.6-1.1,0.9-1.8,0.9h-2
		L3.9,22.1z M33.9,43.8c-4.9,0-9-3.9-9.1-8.8l1-1c0.8-0.7,1.8-1.2,2.9-1.2H30c-0.3,0.6-0.5,1.2-0.5,1.9c0,2.4,2,4.3,4.4,4.3
		c2.4,0,4.4-1.9,4.4-4.3c0-0.7-0.2-1.3-0.5-1.9h1.3c1.1,0,2.1,0.4,2.9,1.2l1,1C42.9,39.9,38.8,43.8,33.9,43.8z M30.7,34.8
		c0-0.7,0.3-1.4,0.7-1.9h5.1c0.4,0.5,0.7,1.2,0.7,1.9c0,1.8-1.4,3.2-3.2,3.2S30.7,36.6,30.7,34.8z M65.2,35c-0.5,2-2.3,3.5-4.4,3.5
		H49.9c-1.1,0-2.1-0.4-2.9-1.2l-2.9-2.8L43.5,34l-0.7-0.6l-0.1-0.1c-1-1-2.3-1.5-3.7-1.5H37h-0.9h-1.3h-1.7h-1.3h-0.9h-2.1
		c-1.4,0-2.7,0.5-3.7,1.5L25,33.3L24.3,34l-0.6,0.6l-2.9,2.8c-0.8,0.7-1.8,1.2-2.9,1.2h-1.7c-4.2,0-7.8-2.6-9.1-6.5l0,0h1.6
		c1.1,0,2.1-0.5,2.8-1.4c0.7-0.9,0.8-2,0.5-3l-1.8-5.4h55.1V35z M65.4,6.1v0.4c-0.1,0.4-0.1,0.7-0.1,1.1V21H9.8l-1-3
		c-0.5-1.3-1.7-2.2-3.2-2.2H2.1v0.9l-2.5-7.7C-1.2,6.6-1,4,0.2,1.8l6-11.9c0.1,0,0.1,0,0.2,0h88c-0.1,0.2-0.1,0.4-0.2,0.5l-3.7,6.9
		c-0.8,1.4-2.3,2.3-3.9,2.3H71.8C68.3-0.3,65.4,2.6,65.4,6.1z M89,43.8c-5,0-9.1-4-9.1-9c0-2.6,1.1-5,2.9-6.6
		c0.5-0.2,1.1-0.4,1.7-0.4H93c1.1,0,2.1,0.4,2.8,1.1c0.2,0.3,0.5,0.5,0.7,0.8c0.1,0.2,0.2,0.4,0.3,0.6l0.2,0.3
		c0.7,1.3,1.1,2.7,1.1,4.2C98.1,39.8,94,43.8,89,43.8z M106.9,37c0,0.8-0.7,1.5-1.5,1.5c-1.5,0-2.9-0.8-3.6-2.1L98,30.1l-0.2-0.3
		l-0.3-0.5c-0.2-0.3-0.4-0.6-0.7-0.9c-0.7-0.8-1.6-1.3-2.6-1.6c-0.4-0.1-0.9-0.2-1.4-0.2h-0.2h-7.7h-0.6c-0.2,0-0.4,0-0.7,0
		c-0.6,0.1-1.1,0.2-1.6,0.5c-1,0.4-1.8,1.2-2.3,2.1l-4.2,7.1c-0.7,1.3-2.1,2.1-3.6,2.1h-2.8c-1.7,0-3-1.3-3-3v-0.3v-13h0.1h34
		c0.2,3.2,2.8,5.7,6.1,5.7h0.3V37z M106.9,26.7h-0.3c-2.6,0-4.8-2-4.9-4.6h4.6c0.4,0.8,0.6,1.7,0.6,2.7V26.7z"/>
	<path class="st2" d="M69.4,8.3v7.3c0,1.5,1.3,2.8,2.8,2.8H86c1,0,1.9-0.6,2.3-1.5c0.4-0.9,0.3-2-0.4-2.7l-7.3-8.3
		c-0.7-1-1.8-1.5-3-1.5h-4.2C71.3,4.4,69.4,6.2,69.4,8.3z M79.8,6.6l7.3,8.4c0.4,0.4,0.5,1,0.2,1.5c-0.2,0.5-0.7,0.8-1.3,0.8H72.3
		c-0.9,0-1.7-0.7-1.7-1.7V8.3c0-1.6,1.3-2.8,2.9-2.8h4.2C78.5,5.5,79.3,5.9,79.8,6.6z"/>
	<path class="st2" d="M44-0.1H23.8c-2.3,0-4.2,1.9-4.2,4.1v7.7c0,2.3,1.9,4.1,4.2,4.1H44c2.3,0,4.2-1.9,4.2-4.1V4
		C48.2,1.7,46.4-0.1,44-0.1z M47.1,11.7c0,1.7-1.4,3-3,3H23.8c-1.7,0-3-1.3-3-3V6.9h26.4V11.7z M47.1,5.8H20.7V4c0-1.7,1.4-3,3-3H44
		c1.7,0,3,1.3,3,3V5.8z"/>
	<path class="st2" d="M69.7-5.5h14.4c0.3,0,0.6-0.3,0.6-0.6c0-0.3-0.3-0.6-0.6-0.6H69.7c-0.3,0-0.6,0.3-0.6,0.6
		C69.1-5.7,69.4-5.5,69.7-5.5z"/>
</g>
</svg>
